# xmcd
#
# Track frame offsets:
#	150
#	23338
#	42403
#	60570
#	82745
#	107990
#	127478
#	154758
#	177565
#	200550
#
# Disc length: 2945 seconds
#
# Revision: 4293787651
# Processed by: cddbd v1.5.2PL0 Copyright (c) Steve Scherf et al.
# Submitted via: EZCDAudioConverter 8.0.2.1
#
DISCID=850b7f0a
DTITLE=Various Artist - 10 Tiếng Hát Hàng Đầu Hải Ngoại
DYEAR=1992
DGENRE=World Pop
TTITLE0=Thái Châu - Những gì cho em
TTITLE1=Duy Quang,Linda Trang Đài - Bên nhau đêm này
TTITLE2=Ngọc Lan - Sao em khóc
TTITLE3=Elvis Phương - Lời cuối cho em
TTITLE4=Kiều Nga - Thoáng mây bay
TTITLE5=Hương Lan - Tưởng rằng đã quên
TTITLE6=Vũ Khanh - Tháng sáu trời mưa
TTITLE7=Le Hang - Dù tình yêu đã mất
TTITLE8=Tuấn Vũ - Em là tất cả
TTITLE9=Như Mai - Giọt buồn không tên
EXTD=
EXTT0=
EXTT1=
EXTT2=
EXTT3=
EXTT4=
EXTT5=
EXTT6=
EXTT7=
EXTT8=
EXTT9=
PLAYORDER=
